<svg width="964" height="152" viewBox="0 0 964 152" fill="none" xmlns="http://www.w3.org/2000/svg">
<path fill-rule="evenodd" clip-rule="evenodd" d="M472.939 2.00024C472.955 2.90978 456.415 82.4864 455.546 82.5032C456.397 82.5581 461.947 82.4439 461.068 82.5032C456.977 102.501 456.967 112.636 468.43 115.271C487.873 115.974 491.53 99.7586 492.264 82.5032C492.218 82.5138 483.059 82.5395 483.061 82.5032C483.102 82.5395 501.366 2.87612 501.466 2.00024C501.55 2.92395 552.983 2.73708 553 2.00024C552.973 2.90446 533.686 82.4261 533.675 82.5032C533.687 82.5032 542.865 82.5032 542.049 82.5032C538.353 120.849 518.22 159.659 445.424 150.696C421.75 147.644 399.061 131.642 411.022 82.3996C411.311 82.4244 402.984 82.4917 403 82.5032C402.915 82.6033 422.288 2.8159 421.497 2.00024C422.2 2.67863 472.964 2.93369 472.939 2.00024Z" fill="#61E786"/>
<path d="M68 7.00024C30.4459 7.00024 0 37.893 0 75.9984C0 114.104 30.4459 144.996 68 144.996C105.554 144.996 136 114.104 136 75.9984C136 37.893 105.554 7.00024 68 7.00024ZM68 139.247C33.6283 139.247 5.66667 110.875 5.66667 75.9984C5.66667 41.1221 33.6283 12.7501 68 12.7501C102.369 12.7501 130.333 41.1221 130.333 75.9984C130.333 110.875 102.369 139.247 68 139.247Z" fill="#61E786"/>
<path d="M68 98.616C57.7139 98.616 49.6808 105.649 45.7028 113.547C44.6375 115.659 46.0542 117.945 47.6272 116.627C60.6787 105.654 75.2443 105.587 88.3751 116.627C89.9459 117.945 91.3626 115.659 90.2972 113.547C86.3192 105.649 78.2884 98.616 68 98.616Z" fill="#61E786"/>
<path d="M51.6777 73.0062C51.7593 72.8314 51.7797 72.6405 51.7752 72.4404C54.2753 74.3563 56.6825 76.5044 59.169 79.0252C58.7089 74.6898 56.619 70.6212 53.8084 67.261C50.975 63.9008 47.3438 61.1869 43.3908 59.3469C39.4241 57.4817 35.0721 56.4444 30.7201 56.4053C26.3817 56.3869 22.1045 57.3713 18.5096 59.7517C21.9798 60.0921 25.0489 60.5774 28.0568 61.2811C27.9276 61.3961 27.8165 61.5249 27.744 61.6836C24.659 68.3903 27.5173 76.3595 34.1224 79.4898C40.7388 82.6154 48.5928 79.7128 51.6777 73.0062Z" fill="#61E786"/>
<path d="M105.28 56.403C100.928 56.4444 96.5759 57.4817 92.6092 59.3446C88.6561 61.1869 85.0249 63.8985 82.1916 67.2587C79.3809 70.6189 77.2911 74.6875 76.8309 79.0229C79.3175 76.4999 81.7247 74.354 84.2248 72.4382C84.2203 72.6383 84.2407 72.8292 84.3223 73.004C87.4072 79.7106 95.2612 82.6131 101.875 79.4852C108.48 76.355 111.341 68.3857 108.254 61.6791C108.181 61.5227 108.07 61.3916 107.941 61.2766C110.949 60.5728 114.02 60.0875 117.488 59.7471C113.895 57.369 109.618 56.3869 105.28 56.403Z" fill="#61E786"/>
<path d="M279.403 115.94L337.033 75.8722L279.403 35.8039V62.3491L208.967 62.3491V88.1431L279.403 88.1431V115.94Z" fill="#61E786"/>
<path d="M689.403 115.94L747.033 75.8722L689.403 35.8039V62.3491L618.967 62.3491V88.1431L689.403 88.1431V115.94Z" fill="#61E786"/>
<path d="M958.182 48.987C962.935 41.9625 963.915 35.0608 962.875 29.0956C961.716 22.4493 957.789 16.8523 951.699 15.1894C946.39 13.7369 941.449 15.1494 936.666 18.8031C934.119 16.6469 931.427 14.6585 928.604 12.8504C925.609 8.3102 921.755 4.82927 916.747 2.65306C911.716 0.459323 906.78 0.539459 902.555 2.39763C897.885 1.49108 893.066 1.00024 888.133 1.00024C883.2 1.00024 878.381 1.48858 873.711 2.40013C869.489 0.544468 864.55 0.461827 859.519 2.65556C854.508 4.83177 850.652 8.3127 847.654 12.8529C844.834 14.6635 842.137 16.6494 839.59 18.8081C834.81 15.1519 829.864 13.7394 824.557 15.1919C818.472 16.8548 814.54 22.4493 813.381 29.0981C812.346 35.0633 813.326 41.965 818.076 48.9895C814.811 57.4063 813 66.5519 813 76.1257C813 117.621 846.642 151.256 888.133 151.256C929.619 151.256 963.256 117.621 963.256 76.1257C963.256 66.5519 961.445 57.4063 958.182 48.987ZM888.133 144.998C850.156 144.998 819.261 114.103 819.261 76.1257C819.261 68.5578 820.508 61.2754 822.774 54.4588C831.942 62.9282 852.267 75.6299 853.068 76.1307C853.739 75.402 877.109 50.2241 882.323 37.808C887.89 24.5429 885.819 14.4031 880.62 7.81936C880.583 7.77429 880.54 7.73922 880.505 7.69415C883.009 7.41617 885.554 7.26091 888.133 7.26091C890.712 7.26091 893.257 7.41617 895.761 7.69415C895.726 7.73922 895.683 7.77429 895.646 7.81936C890.447 14.4031 888.378 24.5429 893.943 37.808C899.157 50.2241 922.522 75.402 923.198 76.1307C923.999 75.6299 944.321 62.9308 953.484 54.4588C955.751 61.2779 956.995 68.5578 956.995 76.1257C956.995 114.103 926.105 144.998 888.133 144.998Z" fill="#61E786"/>
<path d="M926.14 86.1029C917.463 84.4451 904.649 82.7422 888.126 82.7422C871.607 82.7422 858.788 84.4451 850.118 86.1029C846.737 86.754 845.555 89.2683 845.555 91.2792C845.555 109.488 859.607 127.821 888.128 127.821C916.649 127.821 930.706 109.49 930.706 91.2792C930.703 89.2683 929.514 86.754 926.14 86.1029ZM923.123 95.5891C922.99 96.6935 922.78 98.0307 922.462 99.4782C922.103 101.078 921.805 101.822 919.291 101.522C914.48 100.948 861.773 100.948 856.962 101.522C854.451 101.82 854.15 101.076 853.795 99.4782C853.476 98.0307 853.266 96.696 853.131 95.5891C852.906 93.7259 853.103 92.4087 856.346 91.8677C861.843 90.9437 873.471 89.3284 888.126 89.3284C902.78 89.3284 914.408 90.9437 919.905 91.8677C923.15 92.4087 923.346 93.7234 923.123 95.5891Z" fill="#61E786"/>
</svg>
